<?xml version="1.0" encoding="utf-8"?>
<!-- Generator: Adobe Illustrator 16.0.0, SVG Export Plug-In . SVG Version: 6.00 Build 0)  -->
<!DOCTYPE svg PUBLIC "-//W3C//DTD SVG 1.1//EN" "http://www.w3.org/Graphics/SVG/1.1/DTD/svg11.dtd">
<svg version="1.1" id="Ebene_1" xmlns="http://www.w3.org/2000/svg" xmlns:xlink="http://www.w3.org/1999/xlink" x="0px" y="0px"
	 width="425.2px" height="425.2px" viewBox="0 0 425.2 425.2" enable-background="new 0 0 425.2 425.2" xml:space="preserve">
<g>
	<path fill="#CC1233" d="M240.754,33.975L90.894,23.479L71.499,42.875l15.383,27.421l140.314,12.708l14.191-2.401L240.754,33.975z
		 M226.742,70.653c-1.771,0-3.207-1.492-3.207-3.333c0-1.841,1.436-3.333,3.207-3.333s3.209,1.492,3.209,3.333
		C229.951,69.161,228.514,70.653,226.742,70.653z M226.742,55.903c-1.771,0-3.207-1.492-3.207-3.333
		c0-1.841,1.436-3.333,3.207-3.333s3.209,1.492,3.209,3.333C229.951,54.411,228.514,55.903,226.742,55.903z"/>
	<polygon fill="#CC1233" points="231.279,90.721 231.279,75.286 222.602,75.286 222.205,90.721 	"/>
	<polygon fill="#CC1233" points="232.025,142.645 232.023,121.006 221.996,121.006 221.461,141.793 	"/>
	<polygon fill="#CC1233" points="220.104,174.766 214.008,412.063 231.396,409.058 231.385,173.476 	"/>
	<path fill="#CC1233" d="M135.036,137.845l-11.37,22.07l9.363,22.071l87.583-3.456l10.713-0.422l3.363-0.135v-46.148
		L135.036,137.845z M225.658,167.069c-1.771,0-3.207-1.492-3.207-3.334c0-1.841,1.436-3.333,3.207-3.333s3.209,1.492,3.209,3.333
		C228.867,165.577,227.43,167.069,225.658,167.069z M225.658,152.319c-1.771,0-3.207-1.493-3.207-3.333
		c0-1.841,1.436-3.333,3.207-3.333s3.209,1.492,3.209,3.333C228.867,150.827,227.43,152.319,225.658,152.319z"/>
	<path fill="#CC1233" d="M329.656,67.621L208.603,86.347v2.676v42.803l121.053-12.038l14.045-27.421L329.656,67.621z
		 M226.742,120.153c-1.771,0-3.207-1.492-3.207-3.333c0-1.841,1.436-3.333,3.207-3.333s3.209,1.492,3.209,3.333
		C229.951,118.661,228.514,120.153,226.742,120.153z M226.742,105.403c-1.771,0-3.207-1.492-3.207-3.333
		c0-1.841,1.436-3.333,3.207-3.333s3.209,1.492,3.209,3.333C229.951,103.911,228.514,105.403,226.742,105.403z"/>
</g>
</svg>
