<?xml version="1.0" encoding="utf-8"?>
<!-- Generator: Adobe Illustrator 16.0.0, SVG Export Plug-In . SVG Version: 6.00 Build 0)  -->
<!DOCTYPE svg PUBLIC "-//W3C//DTD SVG 1.1//EN" "http://www.w3.org/Graphics/SVG/1.1/DTD/svg11.dtd">
<svg version="1.1" id="Ebene_1" xmlns="http://www.w3.org/2000/svg" xmlns:xlink="http://www.w3.org/1999/xlink" x="0px" y="0px"
	 width="425.2px" height="425.2px" viewBox="0 0 425.2 425.2" enable-background="new 0 0 425.2 425.2" xml:space="preserve">
<g>
	<polygon fill="#CD193A" stroke="#525252" stroke-width="1.9323" points="240.721,190.948 218.184,212.318 217.375,60.431 	"/>
	<polygon fill="#CD193A" stroke="#525252" stroke-width="1.9323" points="238.238,234.665 217.865,210.659 377.287,211.338 	"/>
	<polygon fill="#CD193A" stroke="#525252" stroke-width="1.9323" points="195.615,233.831 217.547,209 219.049,362.03 	"/>
	<polygon fill="#CD193A" stroke="#525252" stroke-width="1.9323" points="195.015,189.587 217.865,210.659 59.451,212.745 	"/>
	<path fill="#CD193A" stroke="#525252" d="M224.684,21.384c3.691,1.354,2.568,31.475-0.424,32.421
		c-2.984,0.939-4.963-17.165-10.836-14.944c-5.876,2.211,2.096,16.209-2.862,14.944c-4.958-1.25-3.175-33.307,0.432-32.937
		c3.593,0.366,5.759,15.747,9.216,18.076C223.672,41.267,220.998,20.039,224.684,21.384z"/>
	<polygon fill="#CD193A" stroke="#525252" points="238.797,179.947 306.004,129.465 252.92,192.422 240.721,190.948 	"/>
	<polygon fill="#CD193A" stroke="#525252" points="248.801,232.806 299.736,298.2 236.422,246.778 238.238,234.665 	"/>
	<polygon fill="#CD193A" stroke="#525252" points="197.855,246.138 133.058,297.903 183.613,231.972 195.615,233.831 	"/>
	<polygon fill="#CD193A" stroke="#525252" points="181.646,191.871 129.61,128.959 196.745,179.598 195.015,189.587 	"/>
	<ellipse fill="none" stroke="#525252" stroke-width="1.9323" cx="217.261" cy="211.338" rx="106.647" ry="101.127"/>
	<ellipse fill="none" stroke="#525252" stroke-width="1.9323" cx="218.184" cy="211.338" rx="96.24" ry="91.256"/>
	<path fill="#CD193A" stroke="#525252" d="M395.115,226.847c15.18-5.219,5.27-33.777-2.387-31.361
		C385.072,197.91,379.949,232.075,395.115,226.847z M394.203,201.653c7.73,0.199,8.951,15.227,1.369,18.747
		C387.996,223.923,386.467,201.463,394.203,201.653z"/>
	<path fill="#CD193A" stroke="#525252" d="M222.637,369.853c-4.625-0.971-10.343,5.854-9.732,10.832
		c0.615,4.975,9.433,1.234,9.851,6.432c0.414,5.191-10.523,6.557-9.711,13.301c0.816,6.754,15.534-5.398,12.987-12.352
		c-2.551-6.961-7.893-5.6-6.605-9.225C220.719,375.216,227.254,370.823,222.637,369.853z"/>
	<path fill="#CD193A" stroke="#525252" d="M24.863,197.27c-4.86,2.305-2.454,26.141,1.428,28.219s9.254-15.364,11.582-16.469
		c2.33-1.104,4.585,16.11,8.467,14.268c3.881-1.842,4.448-24.417,2.336-25.548s1.811,9.995-2.28,11.936
		c-4.09,1.94-4.397-9.771-6.985-8.544c-2.588,1.227-5,12.714-9.736,13.235C24.935,214.89,29.722,194.964,24.863,197.27z"/>
	<polygon fill="#CD193A" stroke="#525252" stroke-width="1.9323" points="195.015,189.587 195.981,190.498 217.375,77.083 
		217.375,60.431 	"/>
	<g>
		<polygon fill="#CD193A" stroke="#525252" stroke-width="1.9323" points="359.479,211.315 377.287,211.338 240.721,190.948 
			239.902,191.702 		"/>
		<polygon stroke="#525252" stroke-width="1.9323" points="239.137,192.409 218.859,211.122 219.441,211.122 		"/>
	</g>
	<g>
		<polygon fill="#CD193A" stroke="#525252" stroke-width="1.9323" points="59.451,212.745 195.615,233.831 77.374,212.509 		"/>
		<polygon fill="#CD193A" stroke="#525252" stroke-width="1.9323" points="95.412,212.272 216.217,211.697 195.615,233.831 
			217.865,210.659 		"/>
	</g>
	<polygon fill="#CD193A" stroke="#525252" stroke-width="1.9323" points="218.004,212.318 216.885,277.116 218.992,215.271 
		236.887,235.028 218.889,338.921 219.053,362.544 238.238,234.665 	"/>
</g>
</svg>
