<?xml version="1.0" encoding="utf-8"?>
<!-- Generator: Adobe Illustrator 16.0.0, SVG Export Plug-In . SVG Version: 6.00 Build 0)  -->
<!DOCTYPE svg PUBLIC "-//W3C//DTD SVG 1.1//EN" "http://www.w3.org/Graphics/SVG/1.1/DTD/svg11.dtd">
<svg version="1.1" id="Ebene_1" xmlns="http://www.w3.org/2000/svg" xmlns:xlink="http://www.w3.org/1999/xlink" x="0px" y="0px"
	 width="425.2px" height="425.2px" viewBox="0 0 425.2 425.2" enable-background="new 0 0 425.2 425.2" xml:space="preserve">
<g>
	<g>
		<g>
			<path fill="#CC1233" d="M301.109,354.08c0.847-1.179,1.693-2.359,2.537-3.54c-0.678-0.466-1.354-0.933-2.031-1.398
				C301.446,350.786,301.278,352.433,301.109,354.08z"/>
			<path fill="#CC1233" d="M340.9,125.605c31.663-18.221,67.359-55.726,38.935-92.25c-28.428-36.521-73.007,20.965-84.378,6.877
				c-11.373-14.088-8.721-25.902-25.277-25.05c-16.559,0.854-16.099,49.343-43.098,50.708c-27,1.366-29.499-24.356-59.029-23.688
				c-29.528,0.667-18.73,128.588-40.667,128.571c-21.936-0.02-32.017-34.964-63.044-18.829
				C33.315,168.08,73.25,276.043,65.65,281.251c-7.6,5.207-19.398-12.879-33.961-5.593s2.263,102.274,11.557,92.198
				c0.769-0.833,2.388-3.278,4.795-7.081c-0.776-0.628-2.027-0.757-4.091-0.608l-0.173-1.332l5.977-0.778
				C79.707,310.29,201.994,107.411,350.278,52.793C204.23,120.094,46.618,368.554,54.704,383.839
				c8.084,15.285,41.562,31.433,59.318,2.25c1.373-2.256,2.468-4.421,3.33-6.501c-2.111,0.621-4.402,1.58-6.645,2.583l-0.322-0.248
				l-0.44-3.38c-0.989,0.952-1.973,1.95-3.2,2.934c-1.275,0.989-2.226,1.499-3.51,1.667c-3.189,0.414-6.157-1.184-6.826-6.325
				l-1.214-9.33c-0.34-2.617-0.556-2.783-3.338-2.954l-0.142-1.095c2.219-0.434,4.467-1.017,6.696-1.741
				c0.049,1.493,0.34,3.73,0.761,6.967l0.831,6.379c0.551,4.236,2.747,5.112,4.889,4.834c1.714-0.224,3.43-1.173,4.844-2.954
				l-1.443-11.091c-0.353-2.714-0.664-2.868-4.153-2.897l-0.143-1.095c2.457-0.465,4.907-0.978,7.363-1.829l2.068,15.899
				c0.31,2.381,0.734,2.664,2.555,2.523l1.345-0.078l0.127,0.978c2.676-6.582,3.005-12.305,2.313-17.311
				c-0.464-0.145-1.104-0.172-2.025-0.181l-0.137-1.046c0.637-0.191,1.251-0.399,1.856-0.622
				c-2.43-12.657-10.718-20.525-0.941-26.219c15.199-8.851,74.664,3.195,102.537-20.241c27.874-23.438-29.85-26.097-13.369-46.938
				c16.478-20.839,68.239,26.306,84.109-11.739c15.869-38.047-30.317-42.615-17.646-54.595c12.672-11.98,47.444,9.956,93.676-19.722
				C414.059,151.045,309.237,143.824,340.9,125.605z M75.58,386.742c-0.714,0.093-1.77-0.206-2.355-0.612
				c-0.706-0.587-1.078-1.217-1.42-1.994c-1.737,1.532-3.793,3.592-5.221,3.777c-3.379,0.439-6.078-2.065-6.468-5.064
				c-0.304-2.333,0.742-3.968,3.243-5.214c2.732-1.324,6.04-3.062,6.975-4.056l-0.111-0.856c-0.446-3.427-2.319-5.169-4.699-4.858
				c-0.952,0.123-1.617,0.598-2.018,1.231c-0.538,0.699-0.831,1.802-1.02,3.327c-0.091,0.786-0.571,1.188-1.238,1.274
				c-0.857,0.111-2.218-0.679-2.361-1.774c-0.093-0.714,0.458-1.317,1.275-2.102c1.209-1.125,4.061-3.386,6.707-4.262
				c1.428-0.187,2.913,0.057,4.071,0.777c1.846,1.163,2.576,3.053,2.898,5.529l1.152,8.853c0.279,2.144,1.229,2.744,2.038,2.64
				c0.571-0.074,1.207-0.398,1.645-0.746l0.638,1.175L75.58,386.742z M92.303,380.984l0.589,1.182l-3.02,2.086
				c-0.753,0.534-1.49,0.823-1.918,0.88c-3,0.391-4.914-1.298-5.403-5.057l-1.802-13.854l-3.285,0.429l-0.253-0.452l1.106-1.547
				l2.189-0.284l-0.452-3.476l2.685-3.545l0.679,0.01l0.849,6.52l5.379-0.699c0.49,0.422,0.483,1.485-0.044,1.894l-5.093,0.663
				l1.592,12.234c0.502,3.855,2.166,4.365,3.355,4.21C90.648,382.022,91.681,381.404,92.303,380.984z"/>
			<path fill="#CC1233" d="M66.519,377.755c-1.745,1.099-2.674,2.14-2.452,3.853c0.323,2.477,2.381,3.418,3.857,3.227
				c1.231-0.209,2.792-1.236,3.585-2.209l-0.966-7.426C69.611,375.852,67.457,377.148,66.519,377.755z"/>
			<path fill="#CC1233" d="M48.999,362.512c0.316,1.313,0.791,3.479,1.362,7.859l1.523,11.709l-0.142,0.019l-22.961-21.313
				l-7.045,0.917l0.173,1.333c2.263-0.102,3.359,0.145,4.466,1.209c1.006,1.031,1.126,1.209,1.578,4.686l1.362,10.473
				c0.57,4.379,0.725,6.683,0.774,8.177c0.065,2.362-1.043,3.137-3.786,3.639l0.173,1.333l11.282-1.468l-0.173-1.334
				c-3.262,0.232-4.431-0.197-4.985-2.593c-0.322-1.362-0.763-3.63-1.333-8.008L29.713,367.2l0.095-0.014l23.525,22.306l1.475-0.191
				l-2.497-19.185c-0.576-4.427-0.76-6.582-0.755-8.035c-0.082-2.119,0.98-2.885,3.627-3.376l-0.174-1.333l-5.257,0.685
				c-0.611,0.974-1.179,1.877-1.713,2.719C48.509,361.155,48.804,361.717,48.999,362.512z"/>
			<path fill="#CC1233" d="M117.481,379.546l-0.028-0.212c-0.034,0.085-0.067,0.169-0.102,0.254
				C117.394,379.575,117.438,379.559,117.481,379.546z"/>
			<path fill="#CC1233" d="M121.176,365.173l1.282,9.854c0.409,3.142,0.113,3.471-2.801,4.141l0.161,1.237l10.949-1.426
				l-0.162-1.236c-3.703,0.191-3.977-0.064-4.386-3.204l-1.133-8.714c0.7-2.801,2.037-4.427,3.275-4.587
				c0.762-0.101,1.37,0.109,2.129,0.738c0.323,0.248,0.757,0.24,1.297-0.072c0.848-0.546,1.344-1.578,1.219-2.529
				c-0.148-1.144-1.452-2.233-3.07-2.022c-2.284,0.298-3.984,3.229-5.104,5.795l-0.095,0.013l-0.675-5.188
				c-1.553,0.935-3.04,1.63-4.602,2.204c0.116,0.605,0.219,1.221,0.306,1.849C120.691,362.312,120.904,363.079,121.176,365.173z"/>
			<path fill="#CC1233" d="M144.041,364.568c-2.26-0.625-4.307-1.472-4.585-3.614c-0.242-1.856,0.858-3.452,2.667-3.688
				c2.332-0.304,4.246,1.384,5.516,4.074l1.2-0.446c-0.298-1.171-1.186-3.912-1.71-4.957c-1.049-0.251-2.39-0.511-4.342-0.258
				c-4.379,0.569-6.87,3.75-6.437,7.082c0.477,3.666,3.775,4.834,6.805,5.794c2.522,0.786,4.052,1.749,4.325,3.844
				c0.26,1.999-1.185,3.541-2.947,3.771c-2.856,0.372-5.357-2.109-6.623-5.14l-1.207,0.399c0.223,1.714,1.073,4.896,1.493,5.518
				c0.949,0.604,3.257,1.223,5.685,0.906c3.809-0.495,7.563-3.26,7-7.591C150.454,366.978,147.803,365.58,144.041,364.568z"/>
			<path fill="#CC1233" d="M164.826,352.812c-0.571,0.074-1.445,0.431-2.24,1.018l-4.045,3.141l-0.489-3.761
				c-2.12,1.195-4.68,2.352-6.636,2.944l0.149,1.144c3.001-0.003,3.204,0.068,3.606,3.161l2.8,21.516
				c0.409,3.144,0.018,3.482-2.992,4.167l0.167,1.284l11.283-1.468l-0.167-1.285c-3.757,0.148-4.12-0.044-4.591-3.663l-0.812-6.236
				c0.662,0.253,2.009,0.562,3.396,0.431c6.04-1.949,11.104-7.303,10.168-14.491C173.809,355.999,170.11,352.124,164.826,352.812z
				 M165.141,372.714c-1.618,0.211-3.525-0.314-4.716-1.272l-1.678-12.901c1.161-1.12,2.977-2.42,4.5-2.619
				c3.475-0.452,6.75,2.026,7.413,7.119C171.359,368.421,169.14,372.195,165.141,372.714z"/>
			<path fill="#CC1233" d="M180.326,346.582c1.38-0.179,2.279-1.458,2.112-2.743c-0.186-1.428-1.37-2.34-2.703-2.165
				c-1.285,0.167-2.291,1.363-2.105,2.791C177.798,345.751,179.089,346.743,180.326,346.582z"/>
			<path fill="#CC1233" d="M185.18,366.767l-2.137-16.423c-1.983,1.129-4.14,2.041-6.519,2.736l0.149,1.142
				c2.917,0.105,3.086,0.276,3.47,3.228l1.276,9.808c0.421,3.236,0.125,3.565-2.837,4.241l0.162,1.237l10.473-1.362l-0.162-1.238
				C185.972,370.246,185.602,370.004,185.18,366.767z"/>
			<path fill="#CC1233" d="M202.244,366.966c-3.333,0.435-7.392-1.747-8.282-8.216c5.639-0.928,11.528-2.178,12.318-2.426
				c0.832-0.303,1.021-0.715,0.897-1.666c-0.483-3.712-4.131-6.82-8.082-6.307c-2.476,0.322-4.879,1.942-6.546,4.386
				c-1.673,2.396-2.485,5.456-2.058,8.739c0.7,5.379,4.747,9.693,10.602,8.932c1.476-0.191,4.649-1.477,7.158-5.628l-0.892-0.899
				C205.857,365.723,204.147,366.719,202.244,366.966z M198.182,350.262c2.618-0.341,4.534,1.733,4.808,4.215
				c0.087,0.666-0.162,0.99-1.018,1.102c-2.749,0.454-5.361,0.842-8.027,1.19C194.158,352.818,195.992,350.546,198.182,350.262z"/>
			<path fill="#CC1233" d="M217.272,362.688l-3.767-28.942c-1.544,0.781-4.39,1.976-6.828,2.583l0.149,1.142
				c3.029-0.151,3.333-0.047,3.755,3.191l2.93,22.516c0.408,3.143,0.018,3.483-2.943,4.159l0.161,1.238l10.616-1.383l-0.161-1.237
				C218.1,366.065,217.682,365.829,217.272,362.688z"/>
			<path fill="#CC1233" d="M236.354,362.383c-1.571,0.204-3.279,0.475-4.993,0.698c-2.143,0.279-3.116-0.515-3.24-1.467
				c-0.088-0.666,0.563-1.621,1.173-2.137c0.774-0.004,1.65,0.026,2.459-0.079c4.047-0.526,8.009-3.56,7.341-8.7
				c-0.223-1.714-0.94-3.12-1.981-4.05l2.732-0.211c0.706-0.527,1.497-1.89,1.827-2.706l-0.336-0.345
				c-1.677,0.51-4.066,1.11-6.387,1.51c-1.479-0.582-3.107-0.806-4.725-0.596c-3.666,0.477-8.2,3.585-7.493,9.011
				c0.42,3.236,2.759,5.208,5.019,5.834c-0.637,1.052-2,2.486-3.811,3.448c0.015,0.482,0.263,1.273,0.784,1.932
				c0.749,0.919,2.081,1.858,3.863,2.16c-1.031,1.005-2.69,2.77-3.518,3.846c-0.62,0.808-0.932,1.769-0.795,2.815
				c0.399,2.707,3.706,5.422,8.99,4.735c6.331-0.825,11.299-6.166,10.675-10.974C243.331,362.443,239.305,361.999,236.354,362.383z
				 M226.728,352.019c-0.484-3.715,1.112-5.955,3.206-6.229c2.714-0.353,4.822,2.084,5.311,5.845c0.49,3.761-1.124,5.859-3.213,6.18
				C229.365,358.16,227.21,355.731,226.728,352.019z M234.759,375.418c-3.523,0.459-6.538-1.133-6.873-3.704
				c-0.181-1.38,0.599-2.837,1.707-3.997c0.757-0.875,1.768-1.295,4.054-1.593c1.998-0.26,3.397-0.298,4.648,0.023
				c1.456,0.392,2.42,1.477,2.631,3.097C241.309,372.193,239.28,374.831,234.759,375.418z"/>
			<path fill="#CC1233" d="M256.259,340.913c-2.283,0.297-3.983,3.229-5.104,5.794l-0.095,0.013l-0.675-5.188
				c-2.154,1.296-4.175,2.14-6.457,2.825l0.136,1.046c2.762,0.028,3.025,0.188,3.434,3.331l1.282,9.854
				c0.41,3.142,0.114,3.471-2.801,4.141l0.161,1.236l10.948-1.425l-0.16-1.238c-3.703,0.192-3.979-0.062-4.387-3.205l-1.134-8.711
				c0.7-2.802,2.037-4.428,3.275-4.589c0.763-0.099,1.369,0.111,2.131,0.739c0.321,0.249,0.756,0.241,1.296-0.072
				c0.849-0.545,1.344-1.579,1.221-2.529C259.182,341.792,257.879,340.701,256.259,340.913z"/>
			<path fill="#CC1233" d="M285.713,356.347c-1.821,0.141-2.245-0.144-2.555-2.523l-2.07-15.899
				c-2.454,0.852-4.905,1.364-7.361,1.829l0.143,1.095c3.49,0.03,3.8,0.183,4.152,2.897l1.442,11.091
				c-1.413,1.781-3.127,2.731-4.842,2.954c-2.142,0.278-4.338-0.598-4.89-4.833l-0.83-6.381c-0.421-3.235-0.713-5.472-0.761-6.968
				c-2.229,0.726-4.478,1.309-6.697,1.742l0.143,1.096c2.783,0.17,2.997,0.335,3.339,2.954l1.212,9.33
				c0.669,5.143,3.637,6.74,6.827,6.325c1.285-0.167,2.236-0.678,3.512-1.668c1.228-0.982,2.21-1.981,3.198-2.933l0.439,3.379
				l0.325,0.249c2.287-1.023,4.627-2.006,6.774-2.624l-0.155-1.192L285.713,356.347z"/>
			<path fill="#CC1233" d="M299.383,335.301c-0.571,0.075-1.444,0.431-2.239,1.018l-4.045,3.141l-0.489-3.76
				c-2.12,1.194-4.681,2.352-6.637,2.944l0.149,1.142c3-0.002,3.202,0.069,3.604,3.162l2.802,21.516
				c0.408,3.144,0.017,3.483-2.992,4.166l0.166,1.285l11.282-1.468l-0.167-1.285c-3.755,0.15-4.121-0.044-4.591-3.662l-0.812-6.236
				c0.664,0.253,2.011,0.562,3.397,0.429c6.039-1.948,11.104-7.302,10.168-14.49C308.366,338.488,304.668,334.613,299.383,335.301z
				 M299.696,355.204c-1.616,0.212-3.524-0.315-4.714-1.274l-1.68-12.899c1.161-1.12,2.976-2.42,4.5-2.619
				c3.475-0.452,6.75,2.025,7.413,7.118C305.916,350.909,303.697,354.684,299.696,355.204z"/>
			<path fill="#CC1233" d="M323.801,332.123c-0.571,0.074-1.444,0.431-2.239,1.018l-4.045,3.142l-0.489-3.762
				c-2.12,1.196-4.68,2.352-6.636,2.944l0.148,1.144c3.001-0.004,3.203,0.068,3.607,3.161l2.8,21.516
				c0.408,3.144,0.017,3.483-2.993,4.167l0.168,1.284l11.282-1.468l-0.168-1.285c-3.757,0.149-4.12-0.044-4.592-3.662l-0.812-6.237
				c0.663,0.253,2.011,0.562,3.396,0.431c6.04-1.948,11.104-7.303,10.167-14.491C332.783,335.312,329.085,331.437,323.801,332.123z
				 M324.116,352.026c-1.619,0.21-3.526-0.314-4.716-1.273l-1.68-12.9c1.161-1.12,2.978-2.421,4.5-2.618
				c3.476-0.454,6.751,2.024,7.414,7.118C330.335,347.732,328.114,351.507,324.116,352.026z"/>
			<path fill="#CC1233" d="M349.462,347.808c-3.331,0.434-7.392-1.748-8.282-8.217c5.641-0.926,11.528-2.178,12.318-2.425
				c0.832-0.302,1.021-0.715,0.897-1.665c-0.483-3.713-4.131-6.821-8.082-6.308c-2.476,0.323-4.879,1.942-6.546,4.385
				c-1.672,2.397-2.485,5.456-2.057,8.74c0.7,5.379,4.746,9.693,10.601,8.932c1.477-0.192,4.65-1.477,7.157-5.628l-0.891-0.9
				C353.075,346.564,351.365,347.561,349.462,347.808z M345.401,331.103c2.616-0.341,4.532,1.734,4.807,4.216
				c0.087,0.667-0.162,0.989-1.017,1.103c-2.749,0.453-5.362,0.842-8.026,1.188C341.377,333.661,343.211,331.389,345.401,331.103z"
				/>
		</g>
	</g>
</g>
</svg>
