<?xml version="1.0" encoding="utf-8"?>
<!-- Generator: Adobe Illustrator 16.0.0, SVG Export Plug-In . SVG Version: 6.00 Build 0)  -->
<!DOCTYPE svg PUBLIC "-//W3C//DTD SVG 1.1//EN" "http://www.w3.org/Graphics/SVG/1.1/DTD/svg11.dtd">
<svg version="1.1" id="Ebene_1" xmlns="http://www.w3.org/2000/svg" xmlns:xlink="http://www.w3.org/1999/xlink" x="0px" y="0px"
	 width="425.2px" height="425.2px" viewBox="0 0 425.2 425.2" enable-background="new 0 0 425.2 425.2" xml:space="preserve">
<g>
	<g>
		<path fill="#CE193A" d="M303.646,350.54c-0.844,1.181-1.69,2.361-2.537,3.54c0.169-1.647,0.337-3.294,0.506-4.938
			C302.292,349.607,302.969,350.074,303.646,350.54z"/>
	</g>
</g>
<g>
	<g>
		<path fill="#CE193A" d="M167.481,275.481"/>
	</g>
</g>
<g>
	<g>
		<path fill="#CC1233" d="M100.581,250.804c-0.902-0.572-1.507-1.282-1.817-2.129c-0.309-0.846-0.132-1.718,0.538-2.613
			c1.253-1.675,3.191-2.089,5.786-1.24C103.263,247.215,102.363,248.409,100.581,250.804z"/>
		<path fill="#CC1233" d="M87.902,275.111c0.651-0.252,1.32-0.208,2.001,0.131c0.612,0.304,1.016,0.737,1.214,1.301
			c0.2,0.564,0.11,1.116-0.263,1.66c-0.581,0.849-1.811,1.518-3.685,2.005c-0.543-0.271-0.815-0.408-1.358-0.681
			c-0.059-1.506,0.133-2.591,0.581-3.253C86.747,275.75,87.252,275.363,87.902,275.111z"/>
		<g>
			<path fill="#CC1233" d="M114.021,386.089c17.757-29.181-10.699-43.283,4.498-52.133c15.199-8.851,74.664,3.195,102.537-20.241
				c27.874-23.438-29.85-26.097-13.369-46.938c16.478-20.839,68.239,26.306,84.109-11.739
				c15.869-38.047-30.317-42.615-17.646-54.595c12.672-11.98,47.444,9.956,93.676-19.722c46.232-29.676-58.589-36.897-26.926-55.116
				c31.663-18.221,67.359-55.726,38.935-92.25c-28.428-36.521-73.007,20.965-84.378,6.877c-11.373-14.088-8.721-25.902-25.277-25.05
				c-16.559,0.854-16.099,49.343-43.098,50.708c-27,1.366-29.499-24.356-59.029-23.688c-29.528,0.667-18.73,128.588-40.667,128.571
				c-21.936-0.02-32.017-34.964-63.044-18.829C33.315,168.08,73.25,276.043,65.65,281.251c-7.6,5.207-19.398-12.879-33.961-5.593
				s2.263,102.274,11.557,92.198c9.293-10.074,142.079-254.305,307.033-315.063C204.23,120.094,46.618,368.554,54.704,383.839
				C62.788,399.124,96.266,415.271,114.021,386.089z"/>
		</g>
	</g>
</g>
</svg>
