<?xml version="1.0" encoding="utf-8"?>
<!-- Generator: Adobe Illustrator 16.0.0, SVG Export Plug-In . SVG Version: 6.00 Build 0)  -->
<!DOCTYPE svg PUBLIC "-//W3C//DTD SVG 1.1//EN" "http://www.w3.org/Graphics/SVG/1.1/DTD/svg11.dtd">
<svg version="1.1" id="Ebene_1" xmlns="http://www.w3.org/2000/svg" xmlns:xlink="http://www.w3.org/1999/xlink" x="0px" y="0px"
	 width="425.2px" height="425.2px" viewBox="0 0 425.2 425.2" enable-background="new 0 0 425.2 425.2" xml:space="preserve">
<path fill="#CE193A" stroke="#CE193A" d="M106.258,85.714c-12.381-0.108-22.504,10.685-22.609,24.108
	c-0.104,13.424,9.85,24.394,22.23,24.502c12.382,0.108,22.504-10.686,22.609-24.109C128.592,96.791,118.64,85.822,106.258,85.714z
	 M105.904,131.12c-9.74-0.085-17.57-8.286-17.492-18.318c0.079-10.03,8.037-18.093,17.775-18.008
	c9.738,0.087,17.568,8.287,17.491,18.318C123.601,123.142,115.643,131.205,105.904,131.12z"/>
<path fill="#CE193A" stroke="#CE193A" d="M232.432,42.486c-16.589-1.982-31.604,11.145-33.538,29.323
	c-1.933,18.178,9.95,34.52,26.54,36.503c16.59,1.982,31.606-11.145,33.539-29.322C260.905,60.812,249.021,44.47,232.432,42.486z
	 M225.896,103.972c-13.048-1.56-22.456-13.835-21.012-27.418c1.444-13.583,13.193-23.332,26.242-21.771
	c13.047,1.56,22.454,13.836,21.01,27.42C250.693,95.786,238.944,105.531,225.896,103.972z"/>
<path fill="#CE193A" stroke="#CE193A" d="M353.179,101.442c-12.382-0.108-22.506,10.685-22.608,24.108
	c-0.106,13.424,9.849,24.394,22.228,24.502c12.383,0.109,22.506-10.685,22.608-24.108
	C375.513,112.521,365.559,101.551,353.179,101.442z M352.824,146.848c-9.741-0.086-17.57-8.286-17.49-18.318
	c0.078-10.03,8.034-18.092,17.772-18.007c9.74,0.086,17.569,8.286,17.492,18.317C370.521,138.871,362.563,146.934,352.824,146.848z"
	/>
<path fill="#CE193A" stroke="#CE193A" d="M67.436,349.987c118.967,39.641,211.204,21.248,290.046-3.766
	C333.69,382.009,102.969,385.644,67.436,349.987z"/>
<path fill="#CE193A" stroke="#CE193A" d="M67.436,349.987c-14.764-14.828-1.832-116.171-1.832-116.171s43.459,69.298,31.791,82.905
	c-11.667,13.609-29.568,31.926-29.568,31.926S67.941,348.946,67.436,349.987z"/>
<path fill="#CE193A" stroke="#CE193A" d="M64.258,202.188c-7.485-0.065-13.612,7.454-13.686,16.795
	c-0.072,9.342,5.938,16.967,13.42,17.033c7.486,0.065,13.612-7.453,13.685-16.795C77.75,209.879,71.74,202.254,64.258,202.188z
	 M64.012,233.786c-5.889-0.053-10.616-5.752-10.562-12.732c0.056-6.979,4.872-12.597,10.76-12.546
	c5.886,0.052,10.613,5.753,10.559,12.734C74.714,228.221,69.898,233.839,64.012,233.786z"/>
<path fill="#CE193A" stroke="#CE193A" d="M355.358,347.304c16.124-13.137,13.117-115.351,13.117-115.351
	s-49.965,64.175-39.685,78.987c10.282,14.812,26.309,34.988,26.309,34.988S354.954,346.212,355.358,347.304z"/>
<path fill="#CE193A" stroke="#CE193A" d="M357.886,216.116c-0.837,9.299,4.528,17.448,11.979,18.201s14.168-6.176,15.005-15.475
	c0.834-9.3-4.53-17.449-11.978-18.203C365.441,199.888,358.722,206.815,357.886,216.116z M360.584,218.441
	c0.62-6.949,5.879-12.101,11.74-11.509c5.861,0.593,10.104,6.706,9.48,13.655s-5.88,12.102-11.743,11.51
	C364.203,231.505,359.957,225.391,360.584,218.441z"/>
<path fill="#CE193A" stroke="#CE193A" d="M66.967,349.989c-0.021,0-0.043,0-0.064,0C66.922,349.989,66.947,349.989,66.967,349.989z"
	/>
<path fill="#CE193A" stroke="#CE193A" d="M67.436,349.987c0,0-0.031,0-0.072,0C67.39,349.987,67.408,349.987,67.436,349.987z"/>
<path fill="#CE193A" stroke="#CE193A" d="M66.902,349.989c-0.129,0.002-0.232,0.002-0.334,0.002
	C66.681,349.991,66.795,349.991,66.902,349.989z"/>
<path fill="#CE193A" stroke="#CE193A" d="M67.363,349.987c-0.146,0.002-0.275,0.002-0.396,0.002
	C67.14,349.989,67.283,349.989,67.363,349.987z"/>
<path fill="#CE193A" stroke="#CE193A" d="M66.568,349.991c-0.172,0.002-0.338,0.002-0.467,0.002
	C66.21,349.993,66.371,349.993,66.568,349.991z"/>
<path fill="#CE193A" stroke="#CE193A" d="M66.102,349.993C65.732,349.995,65.832,349.995,66.102,349.993L66.102,349.993z"/>
<path fill="#CE193A" stroke="#CE193A" d="M221.297,243.291c-12.382-0.108-22.506,10.685-22.608,24.108
	c-0.106,13.424,9.849,24.395,22.228,24.502c12.383,0.109,22.506-10.686,22.608-24.108
	C243.631,254.369,233.677,243.399,221.297,243.291z M220.942,288.696c-9.741-0.086-17.57-8.285-17.49-18.317
	c0.078-10.03,8.034-18.093,17.772-18.007c9.74,0.086,17.569,8.286,17.492,18.317C238.64,280.72,230.682,288.782,220.942,288.696z"/>
<g>
	<path fill="#CC1233" stroke="#CE193A" d="M127.43,267.34c-7.835,1.101-13.211,8.88-12.008,17.373
		c1.201,8.495,8.525,14.487,16.363,13.386c7.837-1.102,13.213-8.881,12.01-17.373C142.592,272.231,135.267,266.238,127.43,267.34z"
		/>
	<path fill="#CC1233" stroke="#CE193A" d="M344.415,323.851c16.054,2.301,5.194-173.508,4.619-175.513
		c0.079-0.143,0.103-0.204-0.054-0.17c-0.182-0.572-0.237-0.19-0.252,0.162c-1.23,0.767-64.389,90.342-76.533,131.616
		c-3.02-46.055-43.539-173.122-44.922-174.937c0.042-0.172-0.006-0.291-0.13-0.154c-0.521-0.622-0.385-0.115-0.233,0.29
		c-1.004,1.325-52.954,117.584-59.844,168.663c-11.297-45.199-59.484-141.658-60.64-142.826
		c0.011-0.15-36.376,203.822-10.947,186.498c0,0-25.97,22.375-28.044,32.508c41.617-45.404,216.465-47.051,264.833-17.549
		C376.493,359.409,351.612,339.583,344.415,323.851z M132.169,300.813c-9.96,1.4-19.343-6.68-20.95-18.047
		c-1.611-11.367,5.161-21.717,15.123-23.117c9.961-1.4,19.343,6.68,20.951,18.047C148.904,289.063,142.132,299.413,132.169,300.813z
		 M120.809,219.103c-13.334-4.343-21.424,50.324-21.424,50.324s-4.576-94.667,11.424-101.334s37.775,79.666,37.775,79.666
		S134.143,223.445,120.809,219.103z M226.143,125.748c13.332,3.679,24.26,101.528,24.26,101.528s-9.887-54.083-24.407-54.083
		s-37.187,58.76-37.187,58.76S212.809,122.069,226.143,125.748z M251.666,266.165c-0.426,18.274-14.309,32.596-31.006,31.988
		c-16.696-0.607-29.887-15.914-29.461-34.189c0.428-18.275,14.311-32.597,31.006-31.989
		C238.902,232.584,252.094,247.89,251.666,266.165z M329.517,289.19c-1.578,11.373-11.061,19.443-21.18,18.027
		c-10.114-1.414-17.038-11.781-15.456-23.152c1.578-11.373,11.062-19.443,21.179-18.027
		C324.175,267.454,331.098,277.819,329.517,289.19z M329.048,229.222c-10.872-8.857-29.39,24.205-29.39,24.205
		s21.121-74.939,38.449-75.39s1.098,91.95,1.098,91.95S339.92,238.079,329.048,229.222z"/>
</g>
<path fill="#CE193A" stroke="#CE193A" d="M314.152,272.504c-7.701-1.813-15.531,3.488-17.488,11.84
	c-1.96,8.353,2.695,16.593,10.398,18.407c7.704,1.812,15.534-3.488,17.49-11.84C326.511,282.558,321.855,274.317,314.152,272.504z"
	/>
<g>
</g>
</svg>
