<?xml version="1.0" encoding="utf-8"?>
<!-- Generator: Adobe Illustrator 16.0.0, SVG Export Plug-In . SVG Version: 6.00 Build 0)  -->
<!DOCTYPE svg PUBLIC "-//W3C//DTD SVG 1.1//EN" "http://www.w3.org/Graphics/SVG/1.1/DTD/svg11.dtd">
<svg version="1.1" id="Ebene_1" xmlns="http://www.w3.org/2000/svg" xmlns:xlink="http://www.w3.org/1999/xlink" x="0px" y="0px"
	 width="425.2px" height="425.2px" viewBox="0 0 425.2 425.2" enable-background="new 0 0 425.2 425.2" xml:space="preserve">
<g>
	<g>
		<g>
			<path fill="#CC1233" d="M209.454,386.515c-0.22-0.152-0.451-0.313-0.696-0.484c-0.02,0.199-0.053,0.383-0.063,0.592
				C208.949,386.589,209.201,386.549,209.454,386.515z"/>
			<path fill="#CC1233" d="M191.744,401.598c3.95-0.522,6.025-4.234,5.296-9.755c-0.718-5.425-4.464-8.126-8.414-7.604
				c-1.333,0.176-2.805,0.758-3.592,1.395l1.623,12.278c0.094,0.713,0.252,1.178,0.499,1.58
				C187.567,400.405,189.215,401.883,191.744,401.598z"/>
			<path fill="#CC1233" d="M260.908,382.762c0.363-0.413,0.729-0.828,1.095-1.25c-0.426,0.074-0.853,0.147-1.277,0.218
				C260.775,382.089,260.839,382.429,260.908,382.762z"/>
			<path fill="#CC1233" d="M264.929,373.234c-2.189,0.289-4.02,2.563-4.223,6.513c1.072-0.142,2.137-0.296,3.205-0.453
				c1.39-1.63,2.799-3.32,4.228-5.073C267.305,373.477,266.201,373.066,264.929,373.234z"/>
			<path fill="#CC1233" d="M211.384,135.695c0,0-142.308-221.127-180.536-42.357c-26.838,125.507,72.978,236.876,134.84,292.1
				c0.856-0.398,1.708-0.837,2.581-1.364l0.547,4.137c0.167,0.147,0.335,0.295,0.501,0.441c1.11-2.407,2.715-4.932,4.824-5.21
				c1.618-0.214,2.924,0.873,3.075,2.014c0.126,0.953-0.367,1.986-1.214,2.535c-0.54,0.312-0.974,0.322-1.297,0.074
				c-0.761-0.626-1.37-0.837-2.131-0.735c-0.809,0.106-1.655,0.85-2.341,2.126c4.583,4.011,8.92,7.688,12.936,11.011l-3.19-24.139
				c-0.39-2.95-0.523-3.224-3.606-3.106l-0.145-1.096c2.199-0.58,5.001-1.725,6.681-2.577l1.937,14.658l3.635-2.176
				c0.717-0.434,1.364-0.664,1.888-0.733c5.092-0.673,9.954,3.14,10.696,8.756c0.925,6.995-3.989,12.68-10.366,13.523
				c-1.097,0.145-2.369,0.152-3.763-0.021c14.824,12.056,24.426,18.646,24.426,18.646s14.641-4.139,37.757-26.928l-7.819,1.034
				l-0.163-1.237c2.912-0.676,3.208-1.005,2.793-4.146l-1.302-9.853c-0.416-3.141-0.679-3.298-3.442-3.321l-0.138-1.047
				c2.282-0.688,4.3-1.536,6.452-2.838l0.686,5.188l0.095-0.013c1.114-2.569,2.808-5.505,5.092-5.807
				c1.619-0.214,2.925,0.873,3.076,2.014c0.125,0.953-0.368,1.986-1.217,2.534c-0.539,0.312-0.974,0.322-1.296,0.074
				c-0.761-0.625-1.369-0.836-2.131-0.736c-1.239,0.164-2.571,1.794-3.268,4.597l1.151,8.71c0.357,2.701,0.617,3.266,3.038,3.244
				c2.24-2.254,4.557-4.683,6.942-7.295c-0.184-0.616-0.321-1.256-0.408-1.911c-0.434-3.284,0.373-6.344,2.041-8.744
				c1.662-2.446,4.062-4.071,6.536-4.398c1.438-0.189,2.833,0.104,4.055,0.729c31.246-39.028,71.386-107.702,111.176-227.806
				C465.135-109.511,211.384,135.695,211.384,135.695z M348.436,174.453c-44.958,130.135-90.475,181.832-115.849,201.845
				l3.062-0.405c0.491,0.419,0.487,1.485-0.04,1.895l-5.093,0.673l1.617,12.231c0.509,3.854,2.173,4.36,3.364,4.203
				c1.188-0.157,2.221-0.778,2.843-1.199l0.593,1.181l-3.017,2.094c-0.752,0.535-1.488,0.826-1.918,0.883
				c-2.997,0.396-4.914-1.286-5.411-5.048l-1.631-12.331c-1.884,1.307-3.607,2.407-5.162,3.335c0.054,0.223,0.097,0.449,0.127,0.678
				c0.125,0.953-0.062,1.364-0.894,1.668c-0.511,0.161-3.162,0.747-6.495,1.396c-1.513,0.632-2.314,0.85-2.314,0.85
				s-0.167-0.109-0.484-0.323c-0.995,0.182-2.011,0.36-3.02,0.528c0.903,6.466,4.967,8.64,8.299,8.2
				c1.902-0.252,3.611-1.251,5.11-3.096l0.893,0.899c-2.5,4.154-5.671,5.445-7.146,5.641c-5.854,0.773-9.909-3.533-10.619-8.91
				c-0.337-2.551,0.081-4.961,1.063-7.037c-30.34-21.674-166.285-126.618-138.986-249.034
				c30.685-137.602,144.909,32.604,144.909,32.604S415.914-20.869,348.436,174.453z"/>
			<path fill="#CC1233" d="M212.432,214.598c0,0-82.211-120.174-104.295-23.021C86.053,288.731,212.419,370.3,212.419,370.3
				s49.473-13.151,98.04-151.057C359.025,81.338,212.432,214.598,212.432,214.598z"/>
			<path fill="#CC1233" d="M72.173,413.818c-2.719-2.256-8.686-7.472-12.894-11.467c2.802-3.712,5.734-7.537,7.322-9.441
				c2.681-3.163,3.712-3.783,7.286-4.595l-0.176-1.333l-11.421,1.51l0.176,1.333l1.065,0.004c2.22-0.051,2.284,0.425,1.13,2.32
				c-1.795,2.9-4.597,6.612-6.881,9.48c-1.169,1.413-2.033,2.205-3.042,2.63l-1.101-8.328c-0.56-4.236-0.128-4.632,3.499-5.401
				l-0.176-1.334l-12.278,1.623l0.176,1.333c3.797-0.211,4.257-0.029,4.83,4.301l2.459,18.607c0.553,4.188,0.169,4.577-3.411,5.342
				l0.176,1.332l12.374-1.635l-0.176-1.333c-3.941,0.229-4.461-0.04-5.014-4.228l-1.195-9.043c0.79-0.249,1.482-0.147,2.747,0.994
				c4.949,4.478,9.42,8.632,13.632,12.288l7.329-0.969l-0.176-1.332C76.062,416.499,75.054,416.197,72.173,413.818z"/>
			<path fill="#CC1233" d="M86.505,411.634l-2.17-16.419c-1.98,1.134-4.136,2.047-6.513,2.749l0.151,1.144
				c2.918,0.097,3.086,0.27,3.477,3.219l1.296,9.805c0.428,3.235,0.132,3.565-2.829,4.247l0.164,1.237l10.47-1.384l-0.164-1.237
				C87.304,415.111,86.933,414.869,86.505,411.634z"/>
			<path fill="#CC1233" d="M81.611,391.459c1.38-0.184,2.276-1.463,2.106-2.748c-0.188-1.429-1.374-2.336-2.707-2.16
				c-1.285,0.17-2.289,1.367-2.1,2.796C79.081,390.63,80.374,391.622,81.611,391.459z"/>
			<path fill="#CC1233" d="M112.548,408.288l-1.214-9.186c-0.61-4.616-3.336-6.919-7.096-6.422c-1.38,0.183-2.542,0.917-3.761,1.95
				c-1.082,0.966-2.035,1.818-2.893,2.658l-0.503-3.807c-1.968,1.228-4.129,2.094-6.357,2.825l0.145,1.095
				c2.633,0.136,2.938,0.24,3.34,3.286l1.302,9.852c0.415,3.141,0.208,3.41-2.983,4.171l0.164,1.237l10.327-1.364l-0.163-1.238
				c-2.846,0.086-3.157-0.067-3.584-3.303l-1.478-11.184c1.264-1.426,2.963-2.861,4.866-3.112c3.188-0.423,4.614,1.568,5.048,4.853
				l1.05,7.947c0.434,3.284,0.151,3.709-2.619,4.365l0.164,1.237l9.899-1.308l-0.164-1.238
				C113.239,411.683,112.976,411.523,112.548,408.288z"/>
			<path fill="#CC1233" d="M139.892,407.096c-1.786,0.041-2.15-0.152-2.478-2.627l-3.755-28.411
				c-1.679,0.852-4.773,1.986-7.204,2.646l0.151,1.143c3.458-0.215,3.715-0.104,4.13,3.037l0.887,6.711
				c-1.145-0.237-2.544-0.197-3.21-0.108c-6.472,0.855-11.592,6.81-10.718,13.425c0.88,6.662,6.336,9.477,10.144,8.973
				c0.571-0.075,1.818-0.53,3.53-1.871l2.676-2.097l0.409,3.094c2.628-1.363,6.115-2.455,7.138-2.783l-0.157-1.19L139.892,407.096z
				 M129.488,408.615c-3.046,0.402-6.885-1.898-7.634-7.562c-0.912-6.9,2.841-9.284,5.03-9.573c1.809-0.239,3.86,0.264,5.222,1.778
				l1.736,13.136C132.814,407.4,131.201,408.39,129.488,408.615z"/>
			<path fill="#CC1233" d="M154.534,405.062c-3.331,0.44-7.396-1.734-8.298-8.2c5.638-0.939,11.523-2.2,12.314-2.45
				c0.831-0.304,1.019-0.716,0.893-1.669c-0.49-3.711-4.145-6.812-8.094-6.289c-2.475,0.327-4.875,1.951-6.537,4.399
				c-1.668,2.399-2.474,5.459-2.041,8.743c0.711,5.377,4.766,9.684,10.62,8.91c1.475-0.194,4.646-1.485,7.147-5.642l-0.894-0.898
				C158.146,403.812,156.438,404.811,154.534,405.062z M150.439,388.366c2.617-0.346,4.537,1.725,4.816,4.205
				c0.088,0.667-0.16,0.989-1.017,1.103c-2.748,0.46-5.359,0.854-8.023,1.206C146.419,390.931,148.25,388.655,150.439,388.366z"/>
			<path fill="#CC1233" d="M169.05,389.248l-0.095,0.013l-0.139-1.051c-1.032-0.908-2.073-1.831-3.128-2.772
				c-1.253,0.584-2.516,1.064-3.872,1.474l0.138,1.047c2.763,0.022,3.026,0.181,3.441,3.32l1.303,9.853
				c0.415,3.141,0.119,3.471-2.794,4.146l0.164,1.237l10.946-1.446l-0.163-1.238c-3.703,0.199-3.978-0.055-4.393-3.195l-1.151-8.711
				c0.241-0.972,0.562-1.791,0.925-2.469c-0.303-0.266-0.609-0.535-0.915-0.804C169.226,388.852,169.136,389.051,169.05,389.248z"/>
			<path fill="#CC1233" d="M183.476,402.786c1.218,0.391,2.375,0.633,3.46,0.769c-1.222-0.994-2.477-2.021-3.767-3.089
				L183.476,402.786z"/>
			<path fill="#CC1233" d="M213.828,378.196c-2.475,0.327-4.875,1.952-6.537,4.398c-0.373,0.536-0.695,1.109-0.977,1.707
				c0.914,0.652,1.729,1.229,2.444,1.729c0.353-3.573,2.086-5.648,4.161-5.922c2.617-0.346,4.536,1.725,4.815,4.204
				c0.089,0.668-0.159,0.99-1.015,1.104c-2.487,0.416-4.862,0.772-7.266,1.099c1.052,0.73,1.826,1.256,2.281,1.562
				c0.964-0.176,1.904-0.353,2.798-0.526c1.63-0.682,4.088-1.847,7.262-3.741C220.979,380.405,217.535,377.707,213.828,378.196z"/>
			<path fill="#CC1233" d="M229.409,370.084l-0.679-0.007l-2.678,3.549l0.459,3.475l-2.188,0.289l-1.104,1.551l0.255,0.45
				l3.282-0.434l0.2,1.517c1.744-1.209,3.625-2.595,5.63-4.176l-2.315,0.306L229.409,370.084z"/>
			<path fill="#CC1233" d="M249.118,395.272l3.126-0.413l-0.163-1.236c-0.518,0.027-0.962,0.045-1.355,0.048
				C250.186,394.215,249.649,394.749,249.118,395.272z"/>
			<path fill="#CC1233" d="M269.745,377.438c0.087,0.668-0.16,0.99-1.017,1.103c-1.641,0.274-3.233,0.521-4.817,0.753
				c-0.64,0.752-1.276,1.492-1.908,2.218c5.219-0.905,10.306-2.001,11.037-2.231c0.83-0.305,1.019-0.716,0.893-1.668
				c-0.312-2.361-1.907-4.471-4.041-5.562c-0.587,0.733-1.172,1.457-1.753,2.17C269.021,375.006,269.602,376.165,269.745,377.438z"
				/>
			<path fill="#CC1233" d="M267.882,393.374c1.475-0.194,4.645-1.485,7.146-5.641l-0.893-0.899c-1.5,1.845-3.208,2.846-5.111,3.097
				c-3.147,0.415-6.943-1.506-8.115-7.169c-1.094,1.242-2.174,2.447-3.24,3.614C258.989,390.815,262.741,394.053,267.882,393.374z"
				/>
			<path fill="#CC1233" d="M299.986,386.08c-1.821,0.144-2.245-0.139-2.561-2.518l-2.101-15.896
				c-2.454,0.858-4.903,1.375-7.358,1.846l0.144,1.094c3.491,0.023,3.801,0.176,4.158,2.888l1.466,11.09
				c-1.409,1.783-3.122,2.736-4.836,2.963c-2.143,0.283-4.34-0.588-4.899-4.824l-0.843-6.377c-0.428-3.236-0.724-5.474-0.775-6.968
				c-2.228,0.73-4.475,1.318-6.692,1.757l0.145,1.095c2.782,0.165,2.997,0.331,3.343,2.948l1.233,9.327
				c0.679,5.14,3.649,6.732,6.839,6.311c1.284-0.17,2.234-0.684,3.507-1.674c1.227-0.984,2.207-1.987,3.194-2.939l0.446,3.378
				l0.324,0.248c2.285-1.029,4.624-2.016,6.77-2.639L301.332,386L299.986,386.08z"/>
			<path fill="#CC1233" d="M324.683,382.816c-1.821,0.143-2.245-0.14-2.56-2.52l-2.101-15.896c-2.453,0.858-4.903,1.376-7.358,1.846
				l0.145,1.094c3.489,0.024,3.799,0.177,4.158,2.889l1.466,11.089c-1.411,1.784-3.125,2.737-4.839,2.964
				c-2.141,0.282-4.338-0.588-4.897-4.825l-0.843-6.376c-0.428-3.236-0.724-5.474-0.776-6.969c-2.228,0.731-4.474,1.319-6.691,1.758
				l0.145,1.094c2.782,0.166,2.997,0.331,3.344,2.947l1.231,9.329c0.68,5.139,3.65,6.732,6.84,6.311
				c1.283-0.17,2.232-0.684,3.506-1.674c1.226-0.984,2.208-1.987,3.194-2.941l0.447,3.38l0.323,0.247
				c2.285-1.028,4.624-2.016,6.77-2.638l-0.157-1.188L324.683,382.816z"/>
			<path fill="#CC1233" d="M348.19,377.144l-1.214-9.187c-0.61-4.616-3.335-6.919-7.097-6.421c-1.38,0.182-2.542,0.916-3.761,1.95
				c-1.082,0.965-2.035,1.817-2.893,2.657l-0.503-3.807c-1.968,1.228-4.129,2.095-6.357,2.826l0.146,1.094
				c2.632,0.137,2.937,0.241,3.34,3.286l1.302,9.853c0.415,3.141,0.209,3.41-2.984,4.171l0.164,1.236l10.327-1.364l-0.164-1.237
				c-2.845,0.085-3.156-0.067-3.583-3.303l-1.479-11.185c1.264-1.426,2.962-2.861,4.866-3.112c3.188-0.422,4.614,1.569,5.047,4.854
				l1.052,7.947c0.434,3.284,0.151,3.708-2.619,4.364l0.163,1.238l9.898-1.309l-0.163-1.237
				C348.881,380.538,348.618,380.379,348.19,377.144z"/>
			<path fill="#CC1233" d="M366.888,376.851c-1.57,0.207-3.276,0.481-4.99,0.708c-2.142,0.283-3.118-0.508-3.243-1.46
				c-0.089-0.666,0.561-1.623,1.17-2.14c0.774-0.006,1.648,0.024,2.458-0.083c4.045-0.535,8.001-3.575,7.322-8.716
				c-0.228-1.713-0.944-3.119-1.987-4.047l2.732-0.215c0.703-0.528,1.491-1.892,1.819-2.71l-0.335-0.343
				c-1.676,0.512-4.065,1.118-6.385,1.521c-1.48-0.578-3.107-0.799-4.726-0.585c-3.664,0.484-8.191,3.601-7.475,9.025
				c0.428,3.236,2.77,5.203,5.03,5.824c-0.636,1.053-1.994,2.49-3.804,3.456c0.015,0.482,0.266,1.272,0.787,1.93
				c0.751,0.917,2.085,1.855,3.868,2.151c-1.029,1.008-2.684,2.776-3.51,3.854c-0.62,0.807-0.928,1.768-0.79,2.815
				c0.406,2.706,3.719,5.416,9,4.718c6.33-0.837,11.287-6.188,10.652-10.995C373.867,376.896,369.839,376.46,366.888,376.851z
				 M357.24,366.504c-0.49-3.712,1.103-5.956,3.196-6.232c2.713-0.357,4.825,2.073,5.322,5.834c0.498,3.759-1.114,5.86-3.201,6.185
				C359.892,372.643,357.731,370.216,357.24,366.504z M365.319,389.89c-3.522,0.465-6.539-1.12-6.879-3.691
				c-0.183-1.38,0.592-2.838,1.697-4.001c0.758-0.874,1.767-1.299,4.05-1.601c1.999-0.265,3.397-0.304,4.651,0.015
				c1.455,0.39,2.421,1.472,2.634,3.091C371.863,386.652,369.841,389.292,365.319,389.89z"/>
		</g>
	</g>
</g>
</svg>
