<?xml version="1.0" encoding="utf-8"?>
<!-- Generator: Adobe Illustrator 16.0.0, SVG Export Plug-In . SVG Version: 6.00 Build 0)  -->
<!DOCTYPE svg PUBLIC "-//W3C//DTD SVG 1.1//EN" "http://www.w3.org/Graphics/SVG/1.1/DTD/svg11.dtd">
<svg version="1.1" id="Ebene_1" xmlns="http://www.w3.org/2000/svg" xmlns:xlink="http://www.w3.org/1999/xlink" x="0px" y="0px"
	 width="425.2px" height="425.2px" viewBox="0 0 425.2 425.2" enable-background="new 0 0 425.2 425.2" xml:space="preserve">
<g>
	<g>
		<path fill="#CE193A" stroke="#CE193A" stroke-miterlimit="10" d="M372.861,126.814c-15.318-32.158-36.31-54.144-46.884-49.107
			c-10.574,5.036-6.728,35.189,8.591,67.348c15.319,32.159,36.311,54.145,46.884,49.108
			C392.027,189.126,388.181,158.973,372.861,126.814z M383.424,188.34c-8.073,3.844-26.142-17.23-40.358-47.076
			c-14.217-29.845-19.198-57.156-11.126-61c8.072-3.845,26.142,17.231,40.357,47.076
			C386.514,157.184,391.495,184.494,383.424,188.34z"/>
		<path fill="#CE193A" stroke="#CE193A" stroke-miterlimit="10" d="M381.585,189.459c0.259,6.36-3.38,3.008-6.25,4.375
			c-8.073,3.844-31.783-16.654-46-46.5c-14.217-29.845-16.072-59.155-8-63c1.802-0.858,6.855-6.445,9.5-5
			c0.011-0.221,0.602-9.249,0,0c-4.962-3.333-10.49,0.769-13.857,2.373c-10.574,5.036-6.728,35.189,8.591,67.348
			c15.319,32.158,36.311,54.145,46.884,49.108c4.422-2.106,12.508-4.329,11.883-9.454
			C384.297,188.682,381.623,189.488,381.585,189.459z"/>
		<path fill="#CE193A" stroke="#CE193A" stroke-miterlimit="10" d="M357.596,191.411c0.226,5.561-3.595,5.362-6.093,6.558
			c-7.027,3.361-27.666-14.561-40.042-40.655c-12.375-26.094-13.99-51.72-6.964-55.082c1.568-0.75,8.535-11.161,10.838-9.898
			c0.87-4.371,0.522-8.086,0,0c-4.32-2.914-12.167,5.333-14.631,7.601c-7.508,6.91-5.855,30.767,7.479,58.882
			c13.334,28.116,31.606,47.339,40.811,42.936c3.85-1.842,10.696-1.863,10.344-9.905
			C359.304,191.824,357.629,191.436,357.596,191.411z"/>
		<path fill="#CE193A" stroke="#CE193A" stroke-miterlimit="10" d="M144.338,252.667c6.847,16.773,23.03,27.754,29.997,28.15
			c-8.372-3.158-20.006-14.66-26.33-30.15c-6.164-15.098-5.462-29.529-1.212-36.004C141.235,217.2,137.267,235.347,144.338,252.667z
			"/>
		<path fill="#CE193A" stroke="#CE193A" stroke-miterlimit="10" d="M153.835,229.335l-0.333-12.5l2.178-2.688
			c-0.311-0.579-0.501-0.896-0.54-0.887c-5.9,1.299-7.159,19.719,0.197,37.741c7.357,18.021,20.544,28.818,26.443,27.52
			c1.48-0.326,2.515-1.559,3.117-3.506c0,0-0.102-0.215-0.287-0.607l-3.442,0.26L153.835,229.335z"/>
		<path fill="#CE193A" stroke="#CE193A" stroke-miterlimit="10" d="M154.732,211.434c-1.246-0.358-2.423-0.444-3.501-0.207
			c-0.219,0.048-0.433,0.114-0.645,0.188c1.336,0.012,2.674,0.322,3.868,1.215C154.462,212.59,154.599,212.002,154.732,211.434z"/>
		<path fill="#CE193A" stroke="#CE193A" stroke-miterlimit="10" d="M182.38,278.819c-0.024-0.02-1.94,0.15-1.963,0.133
			c-0.348,3.553-2.587,1.318-4.683,1.781c-0.409,0.09-0.881,0.113-1.4,0.084c-6.967-0.396-23.15-11.377-29.997-28.15
			c-7.071-17.32-3.103-35.467,2.454-38.004c0.225-0.103,0.451-0.189,0.68-0.239c1.317-0.29,5.274-2.867,6.982-1.793
			c-1.194-0.894-2.532-1.204-3.868-1.215c-2.193-0.02-4.379,0.765-5.909,1.101c-7.728,1.701-12.933,23.4-5.006,42.816
			c7.926,19.418,25.985,29.205,33.712,27.504c1.597-0.354,3.813-0.629,5.647-1.168C180.908,281.116,182.385,280.29,182.38,278.819z"
			/>
		<path fill="#CE193A" stroke="#CE193A" stroke-miterlimit="10" d="M154.733,211.434
			C155.166,209.577,154.955,210.477,154.733,211.434c-0.134,0.568-0.271,1.156-0.279,1.197
			C154.567,212.143,154.659,211.75,154.733,211.434z"/>
		<path fill="#CE193A" stroke="#CE193A" stroke-miterlimit="10" d="M155.338,251.001c-9.734-16.856-3.403-34.992,2.497-36.291
			c0.039-0.01-3.268-2.567-3.381-2.079c-1.708-1.074-5.665,1.503-6.982,1.793c-0.229,0.05-0.455,0.137-0.68,0.239
			c-4.25,6.475-4.951,20.906,1.212,36.004c6.324,15.49,17.958,26.992,26.33,30.15c0.519,0.029,5.355,0.893,5.602,0.729
			c13.564-9.045-13.749-11.447-12.936-15.045C167,266.501,164,266.001,155.338,251.001z"/>
		<path fill="#CE193A" stroke="#CE193A" stroke-miterlimit="10" d="M94.653,316.622c-0.015-0.012-1.262,0.098-1.277,0.086
			c-0.227,2.312-1.684,0.859-3.048,1.16c-0.266,0.059-0.574,0.072-0.911,0.055c-4.535-0.258-16.958-5.67-21.415-16.588
			c-4.603-11.275-0.129-24.82,3.487-26.473c0.146-0.066,0.293-0.123,0.442-0.154c0.858-0.189,3.433-1.867,4.545-1.168
			c-0.777-0.582-1.648-0.783-2.518-0.791c-1.428-0.014-2.851,0.498-3.846,0.717c-5.03,1.107-9.604,16.896-4.444,29.535
			c5.159,12.639,18.099,17.344,23.129,16.236c1.039-0.23,2.481-0.41,3.676-0.762C93.695,318.118,94.656,317.579,94.653,316.622z"/>
		<path fill="#CE193A" stroke="#CE193A" stroke-miterlimit="10" d="M96.106,313.751c0.12,0.254,0.187,0.395,0.187,0.395
			c-0.392,1.268-1.065,2.068-2.029,2.281c-3.84,0.846-14.807-5.363-19.595-17.092c-4.788-11.73-1.585-24.539,2.255-25.385
			c0.025-0.006,0.149,0.201,0.352,0.578l0.914-1.127c-0.523-0.275-1.037-0.498-1.531-0.641c-0.048,0.205-0.108,0.463-0.182,0.779
			c-1.112-0.699-3.687,0.979-4.545,1.168c-0.149,0.031-0.296,0.088-0.442,0.154c-2.766,4.215-5.167,14.977-1.154,24.805
			c4.116,10.082,13.632,16.199,19.082,18.256c0.337,0.018,0.646,0.004,0.911-0.055c1.365-0.301,2.822,1.152,3.048-1.16
			c0.015,0.012,1.262-0.098,1.277-0.086c0.003,0.957-0.958,1.496-2.18,1.854c0.203-0.014,0.401-0.037,0.589-0.078
			c1.702-0.375,2.814-1.902,3.343-4.244l-0.182-0.412L96.106,313.751z"/>
		<path fill="#CE193A" stroke="#CE193A" stroke-miterlimit="10" d="M45.721,342.923c-0.012-0.01-0.974,0.076-0.985,0.066
			c-0.175,1.783-1.298,0.662-2.351,0.895c-0.205,0.045-0.443,0.057-0.703,0.041c-3.498-0.197-14.575-2.836-18.013-11.258
			c-3.55-8.695,1.396-20.68,4.186-21.953c0.113-0.051,0.226-0.096,0.341-0.121c0.662-0.145,2.648-1.439,3.505-0.898
			c-0.6-0.449-1.271-0.605-1.942-0.611c-1.101-0.01-2.199,0.385-2.967,0.553c-3.879,0.854-10.437,14.283-6.457,24.031
			s16.989,12.127,20.869,11.273c0.802-0.178,1.914-0.316,2.835-0.588C44.981,344.077,45.723,343.661,45.721,342.923z"/>
		<path fill="#CE193A" stroke="#CE193A" stroke-miterlimit="10" d="M46.841,340.708c0.093,0.197,0.144,0.305,0.144,0.305
			c-0.302,0.977-0.821,1.596-1.565,1.76c-2.961,0.652-12.725-4.057-16.418-13.105c-3.693-9.047,0.082-19.006,3.043-19.658
			c0.02-0.004,0.115,0.156,0.271,0.447l0.705-0.871c-0.404-0.211-0.8-0.383-1.181-0.492c-0.037,0.158-0.083,0.355-0.14,0.602
			c-0.857-0.541-2.844,0.754-3.505,0.898c-0.115,0.025-0.229,0.07-0.341,0.121c-2.133,3.25-4.946,13.707-1.852,21.287
			c3.175,7.777,11.477,10.34,15.679,11.924c0.26,0.016,0.498,0.004,0.703-0.041c1.053-0.232,2.176,0.889,2.351-0.895
			c0.012,0.01,0.974-0.076,0.985-0.066c0.002,0.738-0.739,1.154-1.682,1.43c0.157-0.012,0.31-0.029,0.455-0.061
			c1.313-0.289,2.17-1.467,2.579-3.273l-0.487-2.684L46.841,340.708z"/>
		<path fill="#CE193A" stroke="#CE193A" stroke-miterlimit="10" d="M359.322,132.629c-9.606-23.469-23.858-39.848-31.832-36.584
			c-7.973,3.264,26.815,88.252,34.788,84.989C370.251,177.769,368.929,156.098,359.322,132.629z M359.826,174.795
			c-0.649,4.448-46.823-83.46-27.509-71.448c6.675,6.321,13.987,17.727,19.672,31.616
			C358.443,150.731,361.157,165.687,359.826,174.795z"/>
		<path fill="#CE193A" stroke="#CE193A" stroke-miterlimit="10" d="M324.333,185.336l-13.667-21.667l-10.333-27.667l-3-16
			l1.333-14.333L150,213.337l-3.667,2l-2.333,10l2.333,17L157,261.003l10,8l9,6.334l9.667-3.334l151.333-73.667L324.333,185.336z
			 M166.669,265.335c-5.334-3.25-5.584-5.25-5.584-5.25c9.166,5.5,105.585-55.417,105.585-55.417S172.828,269.087,166.669,265.335z
			 M149.668,233.335l-1.333-6c0,0,147.188-111.173,148.667-99.334c0.666,5.333,2.666,12.667,2.666,12.667L149.668,233.335z"/>
		<path fill="#CE193A" stroke="#CE193A" stroke-miterlimit="10" d="M80.667,317.001l-1.667-0.666l-10-7.666l-4.333-9.668
			l-0.333-14.332l-32.633,25.025l-2.7,2.307l-2.667,4.668l-1,6.666l0.667,6l2.667,5.334l4,2.666l4.333,3l6.584,3.438
			c0,0,3.188,0.812,3.4-2.76c0.062-1.033-0.025-1.543-0.177-1.762L80.667,317.001z M31.66,330.54
			c-8.114,4.537,31.98-27.639,33.413-23.928c1.431,3.715,0-4.537,1.909,0.414C68.892,311.978,39.774,326.001,31.66,330.54z"/>
		<g>
			<g>
				<path fill="#CE193A" d="M163.667,279.669l-9.333-6.668l-3.333-4.332l-6.333-8.334l-2.667-5l-3.333-10.334l-2-7.332l1-11.334
					l-62.333,47l-3,4.334l-1.333,8.332l0.333,5.668v5.666l3,6.334l2.333,2.666l3,2.666l3.667,4.668l5,2.332l5.93,0.426
					l71.737-36.092L163.667,279.669z M134.667,243.001c1,3,0-3.666,1.333,0.334s-19,15.332-24.667,19
					C105.667,266.001,133.667,240.001,134.667,243.001z M89.231,310.263l-0.146,0.072C89.085,310.335,89.136,310.31,89.231,310.263
					c3.026-1.486,52.726-26.037,56.604-37.428c-0.25,3.5,6.5,6.5,6.5,6.5L89.231,310.263z"/>
			</g>
			<g>
				<path fill="none" stroke="#CE193A" stroke-miterlimit="10" d="M163.667,279.669l-9.333-6.668l-3.333-4.332l-6.333-8.334
					l-2.667-5l-3.333-10.334l-2-7.332l1-11.334l-62.333,47l-3,4.334l-1.333,8.332l0.333,5.668v5.666l3,6.334l2.333,2.666l3,2.666
					l3.667,4.668l5,2.332l5.93,0.426l71.737-36.092L163.667,279.669z M134.667,243.001c1,3,0-3.666,1.333,0.334
					s-19,15.332-24.667,19C105.667,266.001,133.667,240.001,134.667,243.001z M89.231,310.263l-0.146,0.072
					C89.085,310.335,89.136,310.31,89.231,310.263c3.026-1.486,52.726-26.037,56.604-37.428c-0.25,3.5,6.5,6.5,6.5,6.5
					L89.231,310.263z"/>
			</g>
		</g>
	</g>
	<g>
		<path fill="#CC1A3A" d="M25.596,270.471c-3.696-4.177-7.585-8.881-11.905-13.969c-1.104-1.297-1.775-1.488-2.592-1.345v9.121
			c0,4.225,0.48,4.561,4.416,4.849v1.344H3.034v-1.344c3.648-0.288,4.08-0.624,4.08-4.849v-18.77c0-4.368-0.432-4.608-4.225-4.896
			v-1.345h12.386v1.345c-3.696,0.288-4.177,0.624-4.177,4.896v8.4c1.056-0.288,2.017-0.96,3.36-2.208
			c2.641-2.544,5.904-5.856,8.064-8.497c1.393-1.728,1.393-2.208-0.816-2.448l-1.056-0.144v-1.345h11.521v1.345
			c-3.648,0.336-4.753,0.815-7.825,3.601c-1.824,1.68-5.232,5.088-8.497,8.4c3.648,4.513,8.881,10.465,11.281,13.057
			c2.544,2.736,3.505,3.169,5.856,3.457v1.344H25.596z"/>
		<path fill="#CC1A3A" d="M54.828,259.622c0,7.729-5.665,11.425-10.417,11.425c-6.576,0-10.513-5.28-10.513-10.609
			c0-7.92,6.145-11.521,10.513-11.521C50.363,248.917,54.828,253.669,54.828,259.622z M38.362,258.901
			c0,6.049,2.641,10.562,6.577,10.562c2.976,0,5.424-2.208,5.424-8.785c0-5.616-2.256-10.177-6.433-10.177
			C40.955,250.501,38.362,253.478,38.362,258.901z"/>
		<path fill="#CC1A3A" d="M71.146,270.471v-1.248c2.832-0.288,3.169-0.672,3.169-3.984v-8.017c0-3.312-1.152-5.473-4.369-5.473
			c-1.92,0-3.792,1.2-5.232,2.448v11.281c0,3.264,0.288,3.456,3.12,3.744v1.248H57.418v-1.248c3.264-0.336,3.504-0.576,3.504-3.744
			v-9.938c0-3.072-0.288-3.216-2.88-3.696v-1.104c2.304-0.433,4.56-1.009,6.672-1.969v3.841c0.96-0.72,2.017-1.44,3.217-2.256
			c1.344-0.864,2.592-1.44,3.984-1.44c3.792,0,6.192,2.64,6.192,7.297v9.265c0,3.264,0.24,3.456,3.024,3.744v1.248H71.146z"/>
		<path fill="#CC1A3A" d="M92.411,270.423c-0.816,0.432-1.584,0.624-2.017,0.624c-3.023,0-4.704-1.92-4.704-5.713v-13.969h-3.312
			l-0.191-0.48l1.296-1.392h2.208v-3.505l3.12-3.168l0.672,0.096v6.577h5.425c0.432,0.479,0.288,1.536-0.288,1.872h-5.137v12.337
			c0,3.889,1.585,4.608,2.784,4.608c1.2,0,2.305-0.48,2.977-0.816l0.433,1.248L92.411,270.423z"/>
		<g>
			<g>
				<path fill="#3398C3" d="M116.603,267.351c-0.479,0.288-1.152,0.528-1.729,0.528c-0.815,0-1.68-0.721-1.68-2.881v-8.929
					c0-2.496-0.48-4.464-2.16-5.856c-1.056-0.864-2.496-1.296-3.937-1.296c-2.736,0.528-5.856,2.4-7.2,3.36
					c-0.912,0.672-1.536,1.2-1.536,1.92c0,1.104,1.248,2.064,2.112,2.064c0.672,0,1.2-0.336,1.392-1.104
					c0.384-1.488,0.816-2.544,1.44-3.168c0.479-0.576,1.2-0.96,2.16-0.96c2.4,0,4.032,1.968,4.032,5.424v0.864
					c-1.056,0.864-4.561,2.16-7.44,3.12c-2.641,0.912-3.889,2.4-3.889,4.753c0,3.024,2.353,5.856,5.761,5.856
					c1.44,0,3.744-1.776,5.664-3.072c0.24,0.816,0.528,1.488,1.152,2.16c0.528,0.479,1.536,0.912,2.256,0.912l4.081-2.448
					L116.603,267.351z M109.498,266.438c-0.912,0.864-2.592,1.68-3.841,1.728c-1.487,0-3.408-1.199-3.408-3.696
					c0-1.728,1.057-2.64,2.929-3.504c1.008-0.479,3.312-1.488,4.32-2.017V266.438z"/>
			</g>
		</g>
		<g>
			<g>
				<path fill="#3398C3" d="M137.435,266.582c-1.633-1.68-6.481-7.345-7.441-8.784c2.064-2.4,2.929-3.36,4.128-4.561
					c1.873-1.776,2.881-2.256,6.193-2.832v-1.2l-9.793,0.432v1.248c2.256,0.24,2.4,0.624,1.44,2.112
					c-0.912,1.296-2.353,3.168-3.408,4.225c-0.721,0.768-1.585,1.392-3.024,1.68v-22.609c-1.872,0.624-4.608,1.439-6.913,1.68v1.104
					c2.929,0.288,3.169,0.528,3.169,3.696v22.706c0,3.072-0.288,3.456-3.505,3.744v1.248h10.753v-1.248
					c-3.072-0.288-3.504-0.576-3.504-3.744v-5.329c0.336-0.096,0.576-0.144,0.768-0.144c0.433,0,0.864,0.24,1.488,1.056
					c2.641,3.217,5.665,7.057,7.874,9.505l6.576-0.096v-1.248C140.412,269.127,139.164,268.406,137.435,266.582z"/>
			</g>
		</g>
		<path fill="#3398C3" d="M151.833,270.423c-0.816,0.432-1.584,0.624-2.016,0.624c-3.023,0-4.705-1.92-4.705-5.713v-13.969H141.8
			l-0.191-0.48l1.297-1.392h2.207v-3.505l3.121-3.168l0.672,0.096v6.577h5.424c0.432,0.479,0.289,1.536-0.287,1.872h-5.137v12.337
			c0,3.889,1.584,4.608,2.783,4.608c1.201,0,2.305-0.48,2.977-0.816l0.434,1.248L151.833,270.423z"/>
	</g>
</g>
</svg>
