<?xml version="1.0" encoding="utf-8"?>
<!-- Generator: Adobe Illustrator 16.0.0, SVG Export Plug-In . SVG Version: 6.00 Build 0)  -->
<!DOCTYPE svg PUBLIC "-//W3C//DTD SVG 1.1//EN" "http://www.w3.org/Graphics/SVG/1.1/DTD/svg11.dtd">
<svg version="1.1" id="Ebene_1" xmlns="http://www.w3.org/2000/svg" xmlns:xlink="http://www.w3.org/1999/xlink" x="0px" y="0px"
	 width="425.2px" height="425.2px" viewBox="0 0 425.2 425.2" enable-background="new 0 0 425.2 425.2" xml:space="preserve">
<g>
	<path fill="#CC1233" d="M240.754,33.975L90.894,23.479L71.499,42.875l15.383,27.421l140.314,12.708l14.191-2.401L240.754,33.975z
		 M226.742,70.653c-1.771,0-3.207-1.492-3.207-3.333c0-1.841,1.436-3.333,3.207-3.333s3.209,1.492,3.209,3.333
		C229.951,69.161,228.514,70.653,226.742,70.653z M226.742,55.903c-1.771,0-3.207-1.492-3.207-3.333
		c0-1.841,1.436-3.333,3.207-3.333s3.209,1.492,3.209,3.333C229.951,54.411,228.514,55.903,226.742,55.903z"/>
	<polygon fill="#CC1233" points="231.279,90.721 231.279,75.286 222.602,75.286 222.205,90.721 	"/>
	<polygon fill="#CC1233" points="232.025,142.645 232.023,121.006 221.996,121.006 221.461,141.793 	"/>
	<polygon fill="#CC1233" points="220.104,174.766 214.008,412.063 231.396,409.058 231.385,173.476 	"/>
	<path fill="#CC1233" d="M135.036,137.845l-11.37,22.07l9.363,22.071l87.583-3.456l10.713-0.422l3.363-0.135v-46.148
		L135.036,137.845z M225.658,167.069c-1.771,0-3.207-1.492-3.207-3.334c0-1.841,1.436-3.333,3.207-3.333s3.209,1.492,3.209,3.333
		C228.867,165.577,227.43,167.069,225.658,167.069z M225.658,152.319c-1.771,0-3.207-1.493-3.207-3.333
		c0-1.841,1.436-3.333,3.207-3.333s3.209,1.492,3.209,3.333C228.867,150.827,227.43,152.319,225.658,152.319z"/>
	<path fill="#CC1233" d="M329.656,67.621L208.603,86.347v2.676v42.803l121.053-12.038l14.045-27.421L329.656,67.621z
		 M226.742,120.153c-1.771,0-3.207-1.492-3.207-3.333c0-1.841,1.436-3.333,3.207-3.333s3.209,1.492,3.209,3.333
		C229.951,118.661,228.514,120.153,226.742,120.153z M226.742,105.403c-1.771,0-3.207-1.492-3.207-3.333
		c0-1.841,1.436-3.333,3.207-3.333s3.209,1.492,3.209,3.333C229.951,103.911,228.514,105.403,226.742,105.403z"/>
</g>
<g>
	<path fill="#3398C3" d="M253.125,111.278c-0.117,1.511-0.601,6.156-0.86,7.684l-21.605,2.469l-0.153-1.335
		c3.974-0.744,4.317-1.122,3.854-5.175l-2.18-19.078c-0.464-4.054-0.824-4.254-4.721-4.099l-0.152-1.335l12.448-1.423l0.152,1.335
		c-3.735,0.717-4.138,1.004-3.674,5.059l2.152,18.839c0.295,2.575,0.643,3.502,1.556,3.88c1.014,0.416,2.646,0.326,4.649,0.097
		c2.623-0.3,4.218-0.724,5.173-2.089c0.701-1.047,1.434-2.677,1.897-4.952L253.125,111.278z"/>
	<path fill="#3398C3" d="M256.41,118.488l-0.142-1.24c2.972-0.63,3.273-0.954,2.902-4.197l-1.122-9.825
		c-0.338-2.957-0.504-3.131-3.42-3.281l-0.131-1.145c2.39-0.659,4.56-1.536,6.562-2.634l1.88,16.455
		c0.371,3.243,0.737,3.491,3.822,3.429l0.142,1.24L256.41,118.488z M255.738,90.204c-0.163-1.431,0.861-2.611,2.149-2.758
		c1.336-0.153,2.505,0.776,2.668,2.208c0.147,1.288-0.771,2.552-2.154,2.71C257.161,92.504,255.886,91.491,255.738,90.204z"/>
	<path fill="#3398C3" d="M282.688,115.485l-0.142-1.24c2.782-0.608,3.072-1.027,2.696-4.318l-0.91-7.965
		c-0.376-3.291-1.767-5.307-4.963-4.941c-1.907,0.218-3.631,1.623-4.92,3.026l1.28,11.208c0.371,3.243,0.679,3.401,3.526,3.366
		l0.142,1.24l-10.351,1.183l-0.142-1.24c3.205-0.705,3.417-0.97,3.057-4.118l-1.128-9.873c-0.349-3.052-0.651-3.163-3.281-3.345
		l-0.125-1.097c2.239-0.69,4.417-1.52,6.405-2.713l0.436,3.815c0.873-0.825,1.841-1.66,2.94-2.607
		c1.236-1.011,2.411-1.725,3.795-1.883c3.768-0.431,6.452,1.92,6.98,6.546l1.052,9.206c0.371,3.243,0.631,3.406,3.431,3.376
		l0.142,1.24L282.688,115.485z"/>
	<path fill="#3398C3" d="M311.933,112.24c-2.472-2.181-5.913-5.653-8.901-8.549c-0.712-0.74-1.168-0.93-1.598-0.881
		c-0.191,0.022-0.424,0.097-0.747,0.23l0.605,5.294c0.359,3.147,0.821,3.385,3.906,3.322l0.142,1.24l-10.684,1.221l-0.142-1.24
		c3.163-0.651,3.405-1.065,3.057-4.118l-2.578-22.56c-0.36-3.148-0.625-3.359-3.567-3.312l-0.125-1.098
		c2.262-0.5,4.889-1.621,6.678-2.454l2.566,22.464c1.398-0.45,2.186-1.168,2.814-2.013c0.929-1.169,2.147-3.193,2.906-4.584
		c0.785-1.587,0.599-1.953-1.671-1.935l-0.142-1.24l9.681-1.541l0.136,1.192c-3.226,0.949-4.172,1.54-5.83,3.518
		c-1.057,1.329-1.806,2.38-3.585,5c1.118,1.322,6.578,6.399,8.391,7.883c1.924,1.616,3.245,2.189,5.069,2.078l0.142,1.24
		L311.933,112.24z"/>
	<path fill="#3398C3" d="M329.926,94.674c-1.228-2.71-3.115-4.427-5.452-4.161c-1.812,0.207-2.937,1.786-2.725,3.646
		c0.245,2.146,2.279,3.025,4.529,3.686c3.746,1.07,6.374,2.509,6.75,5.8c0.496,4.34-3.302,7.045-7.117,7.481
		c-2.432,0.278-4.729-0.377-5.67-0.995c-0.41-0.629-1.21-3.823-1.406-5.541l1.212-0.38c1.22,3.049,3.682,5.57,6.542,5.243
		c1.767-0.202,3.235-1.722,3.006-3.725c-0.239-2.099-1.754-3.085-4.264-3.91c-3.015-1.009-6.294-2.228-6.714-5.9
		c-0.382-3.339,2.158-6.479,6.546-6.981c1.956-0.224,3.293,0.058,4.338,0.326c0.507,1.053,1.354,3.808,1.632,4.983L329.926,94.674z"
		/>
</g>
</svg>
