<?xml version="1.0" encoding="utf-8"?>
<!-- Generator: Adobe Illustrator 16.0.0, SVG Export Plug-In . SVG Version: 6.00 Build 0)  -->
<!DOCTYPE svg PUBLIC "-//W3C//DTD SVG 1.1//EN" "http://www.w3.org/Graphics/SVG/1.1/DTD/svg11.dtd">
<svg version="1.1" id="Ebene_1" xmlns="http://www.w3.org/2000/svg" xmlns:xlink="http://www.w3.org/1999/xlink" x="0px" y="0px"
	 width="425.2px" height="425.2px" viewBox="0 0 425.2 425.2" enable-background="new 0 0 425.2 425.2" xml:space="preserve">
<g>
	<g>
		<path fill="#CE193A" d="M31,20.001v22c0,0,72,62,136,0c45,50,95,0,95,0c60,68,132,0,132,0v-22H31z M91.333,64.667
			c-14.041,0.521-33.39-9.782-45.069-15.616c-5.756-2.216-7.78-3.668-4.931-2.38c1.414,0.639,3.08,1.456,4.931,2.38
			c15.121,5.823,56.047,16.937,102.402-2.38C148.667,46.671,107.6,64.064,91.333,64.667z M232.096,42.888
			c0.436-0.317,0.855-0.62,1.237-0.887C234.578,41.133,234.047,41.777,232.096,42.888c-4.782,3.477-12.738,9.542-22.757,8.793
			C198.407,50.865,192,42.001,192,42.001C211.41,52.191,226.875,45.859,232.096,42.888z M178,46.112c0,0,44.667,17.89,72-4.111
			S214.666,83.557,178,46.112z M324.666,64.686c-14-0.647-47.333-16.965-47.333-16.965s47.333,16.965,95.333,0
			S338.666,65.333,324.666,64.686z"/>
	</g>
</g>
<g>
	<g>
		<g>
			<path fill="#CE193A" d="M68.189,235.001c0,0,90.362-173.596,50.144-167.367c-15.648,2.423-29.639,0.143-41.425-4.062
				c-0.02,16.802-0.278,67.521-0.278,78.43c0,17-22.6,93-22.6,93s21.972-86.299,22.6-155c0.069-7.594,0.124-12.956,0.165-16.47
				c-24.801-8.886-39.796-26.288-39.796-26.288s-17,357-11,361s9.5-11.5,17-7s1.338,13.227,6,13s6.994-6.992,6.994-6.992
				l2.006-2.008c0,0,4.5,6.5,11-1s2.5,10,7,10s-1-12.5,6-12s-0.5,9.5,5,12s4-3.5,6-9S91.189,248.001,68.189,235.001z M110.002,136
				c-2,14-36.667,88.178-36.667,88.178s30-86.845,32-142.178C105.335,82,112.002,122,110.002,136z M89,85.001
				c-0.333-26.854,10,26,5.359,51s-28.889,94-28.889,94S89.637,136.278,89,85.001z M45.016,239.001L64,72.223
				C80,94.445,45.016,239.001,45.016,239.001z M40.052,155.001C40.536,144.974,48,64.686,48,64.686s5.104,66.613,6,78.315
				s-18,96-18,96S39.568,165.028,40.052,155.001z M40.052,312.001c-1.448,9-9.052,69-9.052,69l5-114
				C36,267.001,41.5,303.001,40.052,312.001z M31,238.809c-2.193-0.762,25.391,6.149,32.477,0c9.28-8.054-9.945,13.58-18.461,10.796
				S31,238.809,31,238.809z M50,388.501c0,0-7.5-119-4.984-118s6.129,27.192,9.015,40S50,388.501,50,388.501z M62.902,320.761
				c-1.346-7.157-1.329,23.258-1.148,45.657C62.071,379.9,62,388.501,62,388.501s-0.147-9.844-0.246-22.083
				c-0.556-23.622-2.304-62.241-7.724-95.923C49.223,240.611,61.525,312.761,62.902,320.761c0.02,0.104,0.039,0.199,0.059,0.319
				C63.07,321.728,63.04,321.561,62.902,320.761z M76.631,385.501c-0.44,5.02-5.631-78.225-13.604-106.5s13.473,43,13.604,59.5
				S77.071,380.481,76.631,385.501z M87.5,391.001c0,0-3.28-69.562-19.311-112.59S82,309.501,84,324.001S87.5,391.001,87.5,391.001z
				"/>
			<path fill="#CE193A" d="M76.795,63.531c0.038,0.014,0.076,0.027,0.113,0.04C76.916,57.082,76.888,55.654,76.795,63.531z"/>
		</g>
	</g>
</g>
<g>
	<g>
		<path fill="#CE193A" d="M387.682,41.995c0,0-28.682,35.493-87,26c-9,125,55.819,171.006,55.819,171.006
			c-33,41.5-16.819,150.994-24.819,158.994s9.48,4.529,9.48,4.529s-2.48-8.529,5.52-4.529s4.319,8.332,9.819,6.832
			s0.951-9.326,6.951-9.826s4.739,10.326,8.739,9.826s4.49-2.832,9.49-5.832s11.519,11.332,14.519,5.832
			S387.682,41.995,387.682,41.995z M369.923,75.485c2,55.333,9.577,154.516,9.577,154.516s-12.243-86.516-14.243-100.516
			S369.923,75.485,369.923,75.485z M348.875,72.223c0.628,68.701,22.6,155,22.6,155s-22.6-76-22.6-93V72.223z M309.209,134.754
			c-2-14,4.666-54,4.666-54c2,55.333,32,142.178,32,142.178S311.209,148.754,309.209,134.754z M324.555,134.051
			c-4.641-25,5.693-77.854,5.359-51c-0.637,51.277,23.529,145,23.529,145S329.195,159.051,324.555,134.051z M342.283,159.49
			c0-17-0.628-130.701,0-62s22.6,139.511,22.6,139.511S342.283,176.49,342.283,159.49z M337.541,395.001c0,0,1.5-52.5,3.5-67
			s31.842-88.617,15.811-45.59S337.541,395.001,337.541,395.001z M361.564,302.001c-7.973,28.275-6.345,101.335-6.784,96.315
			s-5.358-30.315-5.228-46.815S369.537,273.726,361.564,302.001z M361.564,241.858c0,0,16.584,9.01,26.147,2.748
			c-4.273,3.024-11.107,6.978-15.521,5.534C363.676,247.356,361.564,241.858,361.564,241.858z M371.092,395.001
			c0,0-6.917-65.192-4.031-78c2.887-12.808,6.5-39,9.016-40S371.092,395.001,371.092,395.001z M379.742,326.001
			c-1.447-9,4.053-45,4.053-45l5,114C388.795,395.001,381.19,335.001,379.742,326.001z M388.53,244.018
			c0.149-0.117,0.303-0.226,0.447-0.352C393.128,240.064,391.904,241.539,388.53,244.018z"/>
	</g>
</g>
</svg>
